Patient4_TMGait_0pt4_03_right_31_EMG.mot
version=1
nRows=29
nColumns=33
inDegrees=no
endheader
time	1LAddLong	2LGlutMax	3LGlutMed	4LIliopsoas	5LSemiMemb	6LBicFemLong	7LRecFem	8LVastMed	9LVastLat	10LGasMed	11LTibAnt	12lTibPost	13LPeroneusLong	14LSol	15LExtDigLong	16LFlexDigLong	17RAddLong	18RGlutMax	19RGlutMed	20RIliopsoas	21RSemiMemb	22RBicFemLong	23RRecFem	24RVastMed	25RVastLat	26RGasMed	27RTibAnt	28RTibPost	29RPeroneusLong	30RSol	31RExtDigLong	32RFlexDigLong
40.23	0.018158	0.005341	-0.011902	0.028534	0.006714	-0.062256	-0.010223	0.003662	0.14206	-0.000153	0.002136	0.032959	0.15717	0.086823	-0.013733	-0.018158	0.014496	-0.14572	0.35965	-0.094452	0.024109	-0.23193	0.044556	-0.042725	0.011902	-0.012665	-0.066833	-0.002899	-0.33264	-0.070343	-0.003662	0.002747
40.231	0.022736	-0.030975	-0.019073	0.027618	0.015411	-0.052032	-0.1152	-0.019989	0.18036	0.021057	0.009003	0.01297	0.15701	-0.037842	-0.028687	-0.03418	0.013885	-0.13473	0.1886	-0.066833	0.022278	-0.26642	-0.018005	-0.030975	0.023193	0.001221	-0.43457	-0.000916	-0.077209	-0.10086	-0.009155	0.006866
40.232	0.019684	-0.020752	-0.012817	0.01358	0.032043	-0.037537	-0.084991	-0.014954	0.095367	0.065613	0.009155	0.012817	0.34729	0.044708	0.001068	-0.035248	-0.001831	-0.14267	0.60089	-0.030212	0.019989	-0.30472	0.002747	-0.050964	0.030518	0.005035	-0.7045	-0.005188	0.098419	-0.074463	-0.003662	0.010376
40.233	0.013733	-0.005341	0.030212	-0.005188	0.01709	-0.028076	-0.043182	-0.011597	-0.066528	0.10101	-0.006409	0.006714	0.39627	0.12695	0.03006	-0.035858	-0.027161	-0.15884	0.27908	-0.036011	0.022278	-0.32806	-0.009918	-0.037079	0.042267	0.009613	-0.26855	-0.001221	0.17746	-0.034027	0.000763	0.000458
40.234	0.018921	0.05188	0.10971	-0.007935	0.020294	-0.005951	-0.008087	-0.00885	-0.057373	0.082855	-0.007477	0.00061	0.001831	0.19043	0.069275	-0.02594	-0.03479	-0.14099	0.32166	-0.042725	0.0383	-0.35431	-0.011139	-0.019531	0.034637	0.007782	-0.45578	-0.003815	0.14221	0.03067	-0.002899	0.00061
40.235	0.013733	0.071259	0.04425	0.008545	0.010986	0.029144	-0.028381	0.006104	-0.007629	0.032043	-0.009003	-0.008392	0.31784	0.19852	0.06485	-0.013275	-0.00946	-0.15579	0.38422	-0.045319	0.033264	-0.40375	0.006104	-0.030975	0.020447	0.008087	-0.29205	-0.005188	0.15259	-0.01709	-0.002899	0.000458
40.236	0.01236	0.074921	0.099487	0.017548	0.013123	0.020905	-0.023346	0.008087	-0.018311	0.028839	0.011749	-0.014496	0.049591	0.077057	-0.027771	-0.019379	-0.013733	-0.11597	0.2652	-0.10147	0.03418	-0.47394	-0.008698	-0.023346	0.012665	0.009308	-0.52017	-0.003357	0.22964	-0.03479	-0.002441	-0.001221
40.237	0.010071	0.07431	0.19241	0.017395	0.012054	0.022888	-0.019226	0.007935	0.004578	0.012817	0.001984	-0.014191	-0.12528	0.051422	-0.055084	-0.017242	-0.013123	-0.087433	-0.008392	0.016785	0.021515	-0.57373	0.011597	-0.07309	0.012512	0.002594	-0.50919	-0.00351	0.17807	-0.001221	-0.002747	-0.007019
40.238	0.003815	0.090485	0.16052	0.014038	0.005035	0.017395	0.053864	-0.00061	0.009766	0.004578	-0.005035	-0.027313	-0.50156	-0.028076	-0.1297	-0.007019	-0.008545	-0.078583	-0.26886	0.1738	0.019531	-0.67398	0.007477	-0.022736	0.001526	-0.008545	-0.16022	0.00473	0.095825	0.042267	0.000916	-0.005188
40.239	0.00061	0.077515	0.08667	0.02121	0.007172	0.018311	0.059662	0.006561	0.008698	0.002747	0.021973	-0.025635	-0.40832	0.008392	0.011139	-0.015869	-0.006256	-0.092926	-0.23163	0.15686	0.019684	-0.69626	0.037384	-0.050964	0.006866	-0.003967	0.001221	-0.003967	0.070343	0.09903	-0.000916	-0.009918
40.24	0.000305	0.10117	0.006561	0.021667	0.003662	0.016785	0.023346	0.003052	0.012054	-0.045319	-0.000458	-0.027924	0.23789	0.017853	0.054779	-0.017395	-0.009918	-0.014191	0.28915	0.024261	0.013428	-0.49103	0.038147	-0.08667	0.011749	-0.001373	0.093231	-0.005341	0.066681	0.044403	-0.000916	-0.006866
40.241	-0.001526	0.083008	-0.005493	0.008698	0.004578	0.015564	0.000153	0.007935	0.037384	-0.09079	-0.030365	-0.020599	0.14099	0.074005	0.069275	-0.00885	0.003357	-0.066833	0.27908	0.047455	0.016479	-0.38834	0.053864	-0.068817	0.012207	-0.005798	-0.054626	-0.004578	0.083313	0.011292	-0.001831	-0.010071
40.242	0.007477	0.077057	-0.008698	0.000305	0.007324	0.00946	0.009003	0.024109	0.090942	-0.030823	0.019684	-0.033264	0.090332	0.018921	0.009766	-0.028839	0.013275	-0.092773	-0.2002	0.094299	0.023804	-0.30609	0.058136	-0.061646	0.010071	-0.00885	0.10452	-0.004272	0.058746	0.019684	-0.001526	-0.002441
40.243	0.007324	0.11185	-0.020294	0.02182	0.015717	0.001068	-0.020294	0.014496	0.067139	-0.03067	0.053101	-0.035095	0.04425	0.019989	-0.03952	-0.012054	0.00885	-0.10208	-0.006714	0.04837	0.018005	-0.21713	0.082703	-0.10407	0.013428	-0.004578	0.44296	-0.004425	0.032806	0.015106	0.000153	-0.006561
40.244	0.011292	0.11887	0.016937	0.027771	0.011292	0.013275	-0.10635	0.001984	0.035858	-0.028534	0.016327	-0.031281	-0.10483	0.066223	-0.088806	-0.003967	0.005646	-0.076141	0.32867	-0.027618	0.010223	-0.15564	0.062561	-0.09552	0.006104	0.000763	0.58334	-0.004425	0.050812	0.012512	-0.001526	-0.003357
40.245	0.010529	0.12955	0.099945	0.012207	-0.001831	0.018463	-0.19043	-0.001678	-0.069122	-0.069275	-0.057068	-0.032959	-0.1268	0.12192	-0.12451	-0.006104	0.013275	-0.043182	0.67398	-0.077209	0.001984	-0.099792	0.07782	-0.070038	0.012207	-0.002136	0.57953	-0.009308	0.018463	0.008545	0.000763	-0.001984
40.246	0.007172	0.10788	0.027771	-0.012054	0.003357	-0.002441	-0.16022	-0.003662	-0.14511	-0.05722	0.010223	-0.026398	0.077972	0.089874	-0.034637	-0.00885	0.004883	-0.092316	0.51132	-0.1387	0.017395	-0.041809	0.05188	-0.06073	0.019684	-0.002441	-0.24017	-0.002594	0.089417	-0.021973	-0.005188	0.003204
40.247	0.005188	0.070343	0.02533	-0.036163	0.001373	0.003662	-0.061951	-0.04303	-0.12863	-0.054626	0.029907	-0.035858	0.31158	0.036774	-0.014343	-0.005493	0.00824	-0.10361	0.36316	-0.13672	0.01358	-0.009766	-0.01297	-0.070648	0.013733	-0.002136	-0.36972	-0.007324	0.068054	-0.097046	-0.005341	0.00412
40.248	0.004425	0.090942	-0.080872	-0.006714	0.005188	-0.002899	-0.021057	-0.012817	-0.031738	-0.042114	0.04364	-0.024872	0.054474	0.006256	0.016632	-0.000458	0.007019	-0.10193	0.13031	-0.07431	0.018158	0.032349	-0.11215	-0.1181	0.00473	-0.007019	0.056915	-0.002136	-0.011902	-0.076752	-0.000458	0.006256
40.249	0.002747	0.068512	-0.14191	-0.003204	0.000305	0.010986	0.062561	0.005035	0.062866	-0.04364	0.039368	-0.024567	-0.090485	0.002899	0.048828	-0.003204	0.001984	-0.12619	-0.35187	0.024567	0.01709	0.064392	-0.084076	-0.13031	-0.001526	-0.003052	0.32196	-0.001373	0.024109	-0.016937	-0.000458	0.000916
40.25	0.001984	0.050659	-0.17303	0.021057	0.005951	0.01709	0.02655	0.001068	0.05661	-0.050049	-0.002747	-0.021667	-0.38055	0.023041	0.068207	-0.003815	0.001678	-0.075226	-0.25864	0.079956	0.013428	0.085602	-0.043335	-0.14282	-0.00946	-0.010376	0.16419	-0.002747	0.006409	0.088654	0.001068	0.00061
40.251	0.011292	0.070038	-0.10346	0.015564	0.007782	-0.005341	-0.068207	0.007477	0.056305	-0.025024	-0.01709	-0.021667	-0.54214	0.013733	0.019989	-0.00351	0.005188	-0.077972	0.42694	0.000916	0.006714	0.11459	-0.031128	-0.13794	0.015411	-0.001068	-0.10361	-0.001831	-0.093689	0.14618	-0.005188	0.001373
40.252	0.004425	0.064545	0.015717	0.005188	0.008392	0.004425	-0.076141	-0.003204	0.030823	-0.012207	-0.010223	-0.026703	-0.38605	-0.042725	0.028687	-0.006256	0.006561	-0.046692	0.017548	0.06485	0.018463	0.1178	0.016174	-0.10178	-0.002289	-0.011597	0.014648	-0.002747	-0.32211	0.077362	0	-0.000916
40.253	0.00351	0.10574	0.053558	-0.020752	0.007782	-0.006104	-0.008545	0.003967	0.006561	-0.048523	-0.032043	-0.012817	0.32501	0.009155	0.067291	0.005035	0.003662	-0.066833	-0.80795	0.10757	0.005341	0.13534	0.000458	-0.093231	0.020599	-0.02121	-0.023651	-0.001068	-0.24704	0.000305	-0.001526	0.000305
40.254	-0.010223	0.095978	0.10162	-0.010529	0.005341	0.006561	0.000153	-0.000458	0.003357	-0.04364	-0.036926	-0.019684	0.29495	-0.11398	0.014801	0.001526	0.009308	-0.080566	-1.3293	-0.033264	0.006104	0.15305	0.052032	-0.024872	0.016479	-0.016174	-0.17227	-0.002747	0.25192	-0.023956	-0.002441	-0.002747
40.255	0.002899	0.10819	0.10529	-0.003662	0.009766	-0.010071	-0.012817	0.005188	0.007172	-0.041809	-0.02594	-0.007019	0.15945	-0.08728	-0.012665	-0.003815	0.009003	-0.048218	-0.37705	-0.25497	0.006256	0.177	0.16403	-0.016632	0.007935	-0.024109	-0.037231	-0.008392	0.20706	0.020142	-0.00061	-0.001831
40.256	-0.002747	0.0737	0.031281	0.01297	0.002136	0.007629	-0.013123	0.005035	0.009613	-0.030823	0.004578	-0.017242	0.059662	-0.11322	0.072632	-0.005798	0.005493	-0.028534	0.83649	-0.23941	0.013733	0.19119	0.1889	0.023804	0.008392	-0.033875	0.14145	-0.003204	0.42328	0.042572	-0.00473	-0.006561
40.257	0.00473	0.060425	0.061951	0.013428	-0.019226	0.006866	0.008545	0.005493	0.007019	-0.017548	0.014496	-0.013275	-0.022736	-0.13001	0.1004	-0.007782	0.014801	-0.10849	1.6507	-0.097961	0.011902	0.18387	0.18921	0.053406	0.003357	-0.036011	0.000458	-0.002136	0.2565	-0.021515	-0.001068	-0.00885
40.258	0.004883	0.058136	0.024109	0.019531	-0.040131	0.008392	-0.015411	0.010834	-0.000916	-0.023651	0.003662	-0.014191	-0.12405	-0.063934	0.005188	0.005341	0.004272	-0.1416	1.0985	0.10666	0.033875	0.20294	0.088806	-0.010681	0.011444	-0.043488	-0.079041	-0.003815	-0.006866	-0.015869	-0.004883	-0.000916
